<svg version="1.2" preserveAspectRatio="xMidYMid meet" viewBox="0 0 556.6181102362206 576" zoomAndPan="magnify" xmlns:xlink="http://www.w3.org/1999/xlink" xmlns="http://www.w3.org/2000/svg" style="max-height: 500px" width="556.6181102362206" height="576"><defs><clipPath id="ebb0447604"><path d="M 82 35.148438 L 468.714844 35.148438 L 468.714844 541 L 82 541 Z M 82 35.148438"/></clipPath><clipPath id="e50dc9b888"><path d="M 883 263 L 966.800781 263 L 966.800781 402.992188 L 883 402.992188 Z M 883 263"/></clipPath><clipPath id="a3b8738860"><path d="M 597.230469 182 L 695 182 L 695 340 L 597.230469 340 Z M 597.230469 182"/></clipPath></defs><g id="b3417f5bf3"><g clip-path="url(#ebb0447604)" clip-rule="nonzero"><path d="M 223.398438 540.785156 C 223.058594 540.785156 222.746094 540.550781 222.664062 540.207031 C 222.652344 540.144531 221.160156 533.863281 218.167969 525.304688 C 215.410156 517.421875 210.773438 505.933594 204.351562 495.976562 C 199.679688 488.734375 188.980469 477.675781 174.21875 464.835938 C 161.761719 454.003906 147.140625 442.570312 136.054688 435 C 122.921875 426.03125 113.40625 418.871094 106.570312 410.914062 C 99.730469 402.949219 95.804688 394.320312 93.847656 382.929688 C 93.046875 378.265625 92.429688 373.378906 92.941406 368.582031 C 91.585938 366.359375 90.621094 363.714844 90.03125 360.625 C 88.71875 353.742188 89.214844 344.40625 91.550781 332.09375 C 91.605469 331.789062 91.671875 331.484375 91.75 331.175781 C 91.488281 330.636719 91.230469 330.09375 90.972656 329.546875 C 86.402344 319.757812 83.925781 310.710938 84.179688 304.726562 C 84.410156 299.347656 87.308594 288.808594 90.472656 278.683594 C 88.476562 268.238281 86.476562 259.464844 83.125 244.769531 L 82.441406 241.765625 C 81.15625 236.125 83.292969 233.199219 85.726562 232.339844 C 89.304688 231.074219 94.785156 233.585938 98.335938 240.835938 C 99.378906 242.960938 100.402344 245.300781 101.429688 247.90625 C 103.105469 244.761719 104.746094 243.027344 106.53125 242.402344 C 107.921875 241.914062 109.375 242.140625 110.851562 243.078125 C 113.503906 244.757812 115.011719 248.074219 115.328125 252.9375 C 115.601562 257.132812 114.957031 262.347656 113.460938 268.015625 C 112.953125 269.929688 112.378906 271.890625 111.828125 273.785156 C 111.511719 274.863281 111.195312 275.949219 110.882812 277.042969 C 111.734375 279.984375 112.621094 283.097656 113.554688 286.394531 C 113.984375 287.917969 114.40625 289.460938 114.855469 291.097656 C 115.363281 292.949219 115.886719 294.851562 116.433594 296.777344 C 119.71875 293.066406 123.054688 289.277344 125.988281 285.714844 C 127.363281 284.042969 128.792969 283.023438 130.234375 282.6875 C 131.617188 282.367188 132.957031 282.6875 134.117188 283.617188 C 136.132812 285.238281 137.414062 288.625 137.460938 292.457031 C 137.511719 296.734375 136.101562 300.925781 133.492188 304.261719 C 131.585938 306.695312 129.808594 308.921875 128.242188 310.886719 C 126.558594 313 125.046875 314.894531 123.691406 316.644531 C 125.472656 320.160156 127.539062 323.414062 129.996094 326.195312 C 130.839844 325.875 131.644531 325.710938 132.410156 325.734375 C 133.660156 325.765625 134.757812 326.277344 135.667969 327.261719 C 136.519531 328.179688 137.203125 329.925781 137.339844 332.234375 C 139.25 333.308594 141.328125 334.15625 143.59375 334.734375 C 159.339844 338.75 170.929688 344.347656 179.777344 349.035156 C 181.054688 347.804688 182.503906 346.910156 184.117188 346.355469 C 186.535156 345.519531 189.316406 345.453125 192.445312 346.144531 C 192.175781 345.195312 191.839844 344.140625 191.425781 342.96875 C 189.515625 337.550781 186.277344 330.625 182.542969 323.964844 C 181.917969 322.851562 181.277344 321.730469 180.65625 320.644531 C 177.5625 315.238281 174.640625 310.132812 172.65625 304.199219 C 170.425781 297.550781 169.777344 290.769531 170.667969 283.46875 C 171.011719 280.652344 171.859375 278.191406 173.125 276.347656 C 174.386719 274.5 175.992188 273.351562 177.773438 273.015625 C 181.027344 272.40625 184.261719 274.609375 186.644531 279.054688 L 186.757812 279.265625 C 189.867188 285.070312 194.128906 293.023438 204.710938 307.96875 C 206.042969 309.847656 207.359375 311.683594 208.636719 313.457031 C 216.976562 325.058594 224.179688 335.082031 231.898438 353.039062 C 235.953125 362.46875 239.054688 373.71875 240.40625 383.90625 C 240.84375 387.1875 241.171875 390.941406 241.152344 394.726562 C 244.644531 402.480469 248.105469 411.5625 252.140625 422.671875 C 257.78125 438.195312 264.917969 452.046875 275.617188 467.660156 C 276.21875 466.425781 276.867188 465.183594 277.5625 463.929688 C 301.035156 421.835938 312.46875 385.9375 291.976562 347.578125 C 281.972656 328.855469 263.296875 311.902344 248.289062 298.285156 C 236.214844 287.328125 226.679688 278.675781 224.238281 271.910156 C 221.78125 265.113281 222.160156 256.929688 225.355469 247.597656 C 228.234375 239.179688 233.441406 229.964844 240.414062 220.949219 C 247.136719 212.25 255.339844 203.921875 264.128906 196.867188 C 273.167969 189.617188 282.59375 183.910156 291.394531 180.367188 C 301.945312 176.117188 311.785156 174.03125 320.464844 172.1875 C 320.851562 172.105469 321.238281 172.023438 321.621094 171.941406 C 321.753906 171.769531 321.886719 171.601562 322.019531 171.429688 C 323.007812 170.164062 324.019531 168.867188 325.050781 167.539062 C 332.128906 158.421875 334.390625 147.777344 335.039062 140.453125 C 335.175781 138.917969 335.253906 137.425781 335.28125 135.988281 C 334.027344 137.753906 332.765625 139.628906 331.484375 141.625 C 323.707031 153.769531 315.699219 162.535156 307.007812 168.433594 C 299.054688 173.824219 290.570312 176.765625 281.066406 177.421875 C 273.605469 177.9375 268.605469 176.691406 265.722656 175.550781 C 262.878906 174.429688 260.855469 172.902344 260.132812 171.394531 C 258.601562 171.453125 256.664062 171.417969 254.289062 171.191406 C 249.859375 170.773438 244.988281 168.945312 240.933594 166.179688 C 237.707031 163.980469 235.441406 161.492188 234.746094 159.445312 C 234.085938 159.421875 233.402344 159.386719 232.6875 159.332031 C 217.1875 158.175781 207.261719 149.863281 206.324219 144.558594 C 206.210938 143.90625 206.234375 143.300781 206.382812 142.761719 C 201.042969 141.34375 195.4375 138.859375 190.722656 135.765625 C 184.324219 131.566406 180.839844 127.09375 181.167969 123.488281 C 181.171875 123.457031 181.175781 123.425781 181.179688 123.390625 C 173.898438 121.472656 168.300781 117.972656 164.609375 115.0625 C 158.652344 110.367188 154.257812 104.507812 152.554688 98.992188 C 152.160156 97.707031 151.871094 96.292969 152.722656 95.511719 C 153.886719 94.445312 156.152344 95.371094 160.667969 97.214844 C 169.003906 100.617188 184.523438 106.949219 206.128906 105.082031 C 207.535156 104.960938 208.898438 104.839844 210.226562 104.726562 C 227.109375 103.253906 238.257812 102.28125 247.964844 103.425781 C 257.648438 104.566406 265.890625 107.761719 277.363281 114.824219 C 284.183594 119.019531 290.265625 121.78125 295.441406 123.03125 C 299.695312 124.058594 303.25 124.058594 306.011719 123.03125 C 309.257812 121.828125 310.40625 119.5625 310.800781 118.320312 C 311.367188 116.535156 311.460938 114.445312 311.550781 112.421875 C 311.742188 108.101562 311.9375 103.636719 316.589844 101.425781 C 319.644531 99.976562 322.949219 100.527344 326.144531 101.0625 C 329.695312 101.652344 333.371094 102.265625 336.816406 100.179688 C 337.265625 99.90625 337.699219 99.636719 338.125 99.363281 C 338.21875 99.300781 338.3125 99.238281 338.40625 99.175781 C 339.710938 98.320312 340.941406 97.433594 342.105469 96.515625 C 345.800781 93.578125 348.421875 90.578125 350.796875 87.617188 C 351.105469 87.207031 351.402344 86.796875 351.691406 86.386719 C 350.605469 86.054688 349.539062 85.632812 348.5 85.125 C 343.695312 82.765625 340.273438 78.921875 338.613281 74.015625 C 337.417969 70.480469 337.148438 66.304688 337.894531 62.839844 C 337.9375 62.640625 338.0625 62.464844 338.238281 62.355469 C 338.410156 62.25 338.625 62.21875 338.824219 62.269531 C 343.5 63.496094 347.894531 66.742188 350.875 71.167969 C 352.921875 74.207031 354.15625 77.566406 354.476562 80.820312 C 355.03125 79.304688 355.652344 77.417969 356.191406 75.320312 C 356.902344 72.554688 357.550781 69.082031 357.589844 65.523438 C 354.960938 64.550781 352.609375 62.980469 350.65625 60.851562 C 347.050781 56.914062 345.3125 51.445312 346.230469 46.917969 C 346.273438 46.714844 346.394531 46.539062 346.570312 46.429688 C 346.746094 46.320312 346.960938 46.285156 347.160156 46.339844 C 347.242188 46.359375 349.117188 46.863281 351.371094 48.445312 C 353.441406 49.898438 356.242188 52.582031 357.84375 57.117188 C 358.671875 59.457031 359.03125 61.957031 359.089844 64.429688 C 359.542969 64.570312 360.007812 64.6875 360.476562 64.785156 C 361.136719 61.167969 361.414062 57.867188 361.5 55.136719 C 361.820312 45.015625 363.921875 38.164062 373.40625 35.300781 C 373.707031 35.210938 374.03125 35.316406 374.222656 35.566406 C 374.414062 35.816406 374.429688 36.15625 374.261719 36.425781 C 374.242188 36.453125 372.277344 39.730469 373.007812 45.757812 C 373.398438 48.980469 373.265625 51.753906 372.617188 54.058594 C 375.824219 53.53125 379.578125 53.644531 383.542969 54.503906 C 383.773438 54.554688 383.964844 54.707031 384.066406 54.917969 C 384.164062 55.128906 384.160156 55.378906 384.054688 55.585938 C 382.367188 58.886719 376.59375 65.421875 366.816406 66.542969 C 365.058594 66.742188 363.347656 66.734375 361.710938 66.527344 C 360.800781 70.972656 359.4375 75.1875 357.617188 79.136719 C 357.425781 79.554688 357.230469 79.972656 357.027344 80.382812 C 358.746094 78.921875 360.683594 77.765625 362.757812 76.976562 C 366.214844 75.65625 369.917969 75.347656 373.761719 76.0625 C 373.984375 76.105469 374.179688 76.246094 374.285156 76.445312 C 374.394531 76.648438 374.40625 76.886719 374.316406 77.097656 C 372.589844 81.203125 369.160156 84.390625 364.664062 86.070312 C 361.089844 87.410156 357.148438 87.648438 353.351562 86.820312 C 353.050781 87.207031 352.742188 87.597656 352.429688 87.988281 C 349.210938 92.386719 345.296875 96.210938 340.71875 99.429688 C 340.167969 99.820312 339.59375 100.207031 338.996094 100.59375 C 334.679688 103.457031 332.644531 105.871094 332.199219 108.636719 C 331.757812 111.390625 332.847656 114.625 334.5625 119.242188 C 335.511719 121.808594 336.4375 126.128906 336.71875 131.503906 C 342.082031 124.519531 347.535156 119.140625 353.476562 114.925781 C 361.527344 109.210938 370.089844 105.832031 379.640625 102.3125 C 386.421875 99.8125 392.980469 98.125 399.324219 96.492188 C 411.664062 93.316406 423.324219 90.320312 435.15625 81.84375 C 437.523438 80.148438 439.503906 78.960938 441.042969 78.3125 C 441.703125 78.039062 443.707031 77.195312 444.703125 78.292969 C 445.539062 79.214844 445.179688 80.910156 443.574219 83.632812 C 442.078125 86.171875 439.582031 89.445312 436.164062 93.355469 C 429.953125 100.464844 423.550781 104.917969 419.996094 107.082031 C 420.207031 107.519531 420.351562 108.019531 420.417969 108.566406 C 420.808594 111.761719 419.847656 115.480469 417.714844 119.03125 C 415.035156 123.5 410.644531 127.65625 404.65625 131.390625 C 402.324219 132.847656 400.183594 134.007812 398.320312 134.847656 C 398.300781 136.136719 397.832031 137.636719 396.949219 139.160156 C 395.792969 141.148438 393.371094 144.113281 388.410156 146.949219 C 384.585938 149.132812 381.085938 150.050781 379.339844 150.40625 C 379.230469 150.425781 379.113281 150.449219 378.996094 150.472656 C 378.476562 151.257812 377.695312 152.144531 376.644531 153.132812 C 370.214844 159.21875 355.886719 160.652344 353.757812 160.832031 C 344.777344 168.304688 334.402344 170.757812 322.472656 173.300781 C 320.058594 176.398438 317.796875 179.304688 315.773438 182.039062 C 321.84375 182.59375 329.78125 184.832031 334.910156 192.054688 C 338.273438 196.785156 339.945312 203.039062 339.882812 210.644531 C 339.8125 219.289062 337.484375 229.792969 332.972656 241.863281 C 321.238281 273.234375 318.027344 293.226562 323.160156 302.980469 C 323.757812 304.117188 324.46875 305.121094 325.300781 306 C 331.324219 290.21875 337.410156 280.484375 344.371094 269.359375 C 345.53125 267.507812 346.730469 265.59375 347.9375 263.628906 C 357.539062 248.035156 361.28125 239.828125 364.011719 233.832031 L 364.109375 233.617188 C 366.203125 229.027344 369.289062 226.621094 372.574219 227.019531 C 374.371094 227.238281 376.050781 228.285156 377.429688 230.042969 C 378.808594 231.804688 379.8125 234.207031 380.335938 236.992188 C 381.695312 244.222656 381.480469 251.035156 379.683594 257.8125 C 378.082031 263.859375 375.496094 269.140625 372.753906 274.738281 C 372.207031 275.859375 371.636719 277.019531 371.085938 278.171875 C 367.785156 285.058594 365 292.175781 363.441406 297.703125 C 362.761719 300.117188 362.363281 302.027344 362.15625 303.539062 C 364.011719 303.1875 365.882812 303 367.773438 303.066406 C 369.835938 303.132812 371.722656 303.535156 373.425781 304.265625 C 382.191406 298.804688 393.933594 291.84375 410.644531 286.417969 C 412.871094 285.695312 414.890625 284.714844 416.726562 283.519531 C 416.714844 281.207031 417.285156 279.421875 418.074219 278.453125 C 418.921875 277.410156 419.984375 276.828125 421.230469 276.714844 C 421.992188 276.648438 422.804688 276.757812 423.667969 277.019531 C 425.941406 274.089844 427.796875 270.710938 429.34375 267.085938 C 427.882812 265.429688 426.25 263.632812 424.433594 261.632812 C 422.746094 259.773438 420.828125 257.664062 418.769531 255.355469 C 415.953125 252.199219 414.277344 248.105469 414.054688 243.832031 C 413.855469 240.003906 414.914062 236.542969 416.824219 234.796875 C 417.917969 233.796875 419.238281 233.390625 420.636719 233.621094 C 422.097656 233.863281 423.585938 234.785156 425.070312 236.367188 C 428.222656 239.734375 431.796875 243.304688 435.316406 246.796875 C 435.738281 244.839844 436.136719 242.90625 436.523438 241.023438 C 436.867188 239.363281 437.191406 237.792969 437.519531 236.246094 C 438.238281 232.894531 438.925781 229.734375 439.585938 226.742188 C 439.207031 225.671875 438.820312 224.609375 438.433594 223.550781 C 437.761719 221.695312 437.0625 219.777344 436.4375 217.898438 C 434.578125 212.339844 433.597656 207.175781 433.601562 202.972656 C 433.609375 198.101562 434.898438 194.695312 437.4375 192.847656 C 438.851562 191.816406 440.289062 191.5 441.707031 191.894531 C 443.527344 192.402344 445.273438 194.03125 447.148438 197.058594 C 448.007812 194.394531 448.878906 191.992188 449.78125 189.804688 C 452.859375 182.34375 458.167969 179.484375 461.824219 180.515625 C 464.304688 181.21875 466.625 184.003906 465.707031 189.710938 L 465.214844 192.757812 C 462.8125 207.636719 461.378906 216.519531 460.058594 227.070312 C 463.867188 236.972656 467.4375 247.304688 468.011719 252.65625 C 468.648438 258.613281 466.757812 267.800781 462.824219 277.859375 C 462.605469 278.421875 462.382812 278.980469 462.152344 279.535156 C 462.25 279.839844 462.339844 280.140625 462.414062 280.4375 C 465.535156 292.578125 466.628906 301.859375 465.761719 308.816406 C 465.371094 311.9375 464.578125 314.636719 463.371094 316.945312 C 464.1875 321.695312 463.886719 326.613281 463.386719 331.320312 C 462.164062 342.8125 458.800781 351.675781 452.484375 360.0625 C 446.175781 368.441406 437.140625 376.195312 424.605469 385.992188 C 414.03125 394.257812 400.171875 406.605469 388.4375 418.21875 C 374.535156 431.976562 364.5625 443.699219 360.367188 451.230469 C 354.597656 461.574219 350.710938 473.339844 348.464844 481.382812 C 346.027344 490.117188 344.941406 496.476562 344.933594 496.542969 C 344.863281 496.953125 344.472656 497.230469 344.0625 497.160156 C 343.652344 497.089844 343.375 496.703125 343.441406 496.289062 C 343.453125 496.226562 344.546875 489.800781 347.003906 480.996094 C 349.273438 472.867188 353.207031 460.976562 359.046875 450.496094 C 364.515625 440.691406 377.46875 426.949219 387.378906 417.144531 C 399.148438 405.496094 413.058594 393.101562 423.679688 384.804688 C 447.773438 365.96875 459.398438 354.535156 461.882812 331.160156 C 462.367188 326.613281 462.539062 322.621094 462.125 318.972656 C 460.894531 320.703125 459.367188 322.164062 457.53125 323.371094 C 454.570312 325.320312 448.3125 326.363281 440.367188 327.632812 C 439.402344 330.792969 437.585938 333.988281 434.9375 337.175781 C 431.007812 341.902344 425.121094 346.765625 417.433594 351.636719 C 395.300781 365.660156 384.347656 382.25 377.097656 393.230469 C 372.382812 400.367188 369.203125 405.179688 365.40625 405.179688 C 365.246094 405.179688 365.082031 405.171875 364.917969 405.152344 C 363.414062 404.992188 361.371094 403.953125 360.171875 399.914062 C 358.414062 394 359.332031 384.597656 362.558594 375.375 C 365.347656 367.398438 371.09375 355.917969 382.625 346.511719 C 390.183594 340.347656 399.570312 335.644531 411.320312 332.132812 C 421.242188 329.167969 431.167969 327.574219 439.175781 326.296875 C 439.414062 325.339844 439.566406 324.394531 439.632812 323.453125 C 440.085938 317.15625 436.679688 310.851562 429.511719 304.714844 C 421.402344 297.769531 418.429688 291.726562 417.363281 287.875 C 417.105469 286.953125 416.9375 286.074219 416.835938 285.242188 C 415.089844 286.296875 413.1875 287.179688 411.113281 287.851562 C 395.058594 293.0625 383.613281 299.722656 375 305.066406 C 376.332031 305.855469 377.53125 306.875 378.589844 308.121094 C 381.117188 311.09375 381.988281 314.429688 382.195312 315.382812 C 383.628906 322.007812 383.335938 328.828125 381.324219 335.652344 C 379.464844 341.949219 376.25 347.953125 371.757812 353.507812 C 366.800781 359.636719 360.566406 364.8125 353.726562 368.46875 C 346.753906 372.203125 339.464844 374.171875 332.648438 374.171875 C 332.617188 374.171875 332.589844 374.171875 332.5625 374.171875 C 328.019531 374.164062 324.390625 372.269531 321.765625 368.542969 C 316.941406 361.6875 316.613281 350.164062 317.191406 341.703125 C 317.886719 331.449219 320.261719 320.023438 323.699219 310.351562 C 324.039062 309.398438 324.375 308.46875 324.714844 307.554688 C 323.570312 306.464844 322.609375 305.175781 321.824219 303.683594 C 319.191406 298.679688 318.605469 291.488281 320.027344 281.691406 C 321.550781 271.207031 325.320312 258.003906 331.558594 241.332031 C 336.011719 229.429688 338.304688 219.097656 338.375 210.632812 C 338.433594 203.351562 336.855469 197.394531 333.679688 192.929688 C 328.625 185.8125 320.578125 183.855469 314.722656 183.46875 C 308.25 192.390625 304.589844 199.347656 306.824219 204.699219 C 307.429688 206.160156 308.695312 207.4375 309.808594 208.558594 C 310.6875 209.445312 311.515625 210.28125 311.980469 211.144531 C 312.574219 212.261719 312.488281 213.308594 311.722656 214.261719 C 310.328125 215.996094 307.457031 217.679688 304.050781 218.765625 C 301.414062 219.605469 298.886719 219.964844 296.824219 219.808594 C 295.296875 221.144531 293.199219 222.445312 290.707031 223.578125 C 286.460938 225.511719 281.804688 226.597656 277.925781 226.554688 C 277.066406 226.542969 276.339844 226.488281 275.722656 226.394531 C 273.773438 227.71875 270.277344 229.734375 264.632812 231.910156 C 258.992188 234.082031 254.667969 233.84375 252.769531 231.253906 C 251.507812 229.535156 251.441406 226.90625 252.578125 223.65625 C 253.765625 220.253906 256.199219 216.238281 259.808594 211.714844 C 266.355469 203.515625 274.988281 196.050781 284.117188 190.691406 C 293.613281 185.121094 303.039062 182.078125 311.375 181.886719 C 312.164062 181.871094 313.046875 181.875 313.988281 181.914062 C 315.863281 179.359375 317.949219 176.652344 320.179688 173.789062 C 311.707031 175.589844 302.148438 177.664062 291.957031 181.765625 C 274.628906 188.742188 255.335938 204.109375 241.609375 221.871094 C 234.738281 230.757812 229.613281 239.824219 226.78125 248.085938 C 223.699219 257.085938 223.324219 264.929688 225.660156 271.398438 C 227.972656 277.808594 237.859375 286.777344 249.300781 297.164062 C 264.394531 310.863281 283.179688 327.910156 293.308594 346.867188 C 298.476562 356.542969 301.726562 366.074219 303.246094 376.003906 C 304.671875 385.335938 304.523438 394.761719 302.792969 404.820312 C 299.875 421.789062 292.5 440.246094 278.882812 464.664062 C 278.042969 466.171875 277.285156 467.644531 276.605469 469.09375 C 281.382812 475.972656 286.847656 483.207031 293.183594 491.089844 C 297.664062 496.664062 300.472656 501.605469 301.527344 505.78125 C 302.730469 510.539062 301.371094 513.214844 300.019531 514.625 C 298.203125 516.511719 295.273438 517.328125 291.773438 516.914062 C 288.351562 516.507812 284.679688 514.964844 281.429688 512.558594 C 275.695312 508.316406 271.84375 501.929688 270.585938 494.574219 C 269.84375 490.25 269.984375 485.597656 271.003906 480.742188 C 271.78125 477.03125 273.078125 473.179688 274.871094 469.242188 C 263.824219 453.222656 256.496094 439.078125 250.726562 423.1875 C 247.320312 413.816406 244.230469 405.546875 241.03125 398.167969 C 240.707031 402.902344 239.714844 407.472656 237.5625 410.984375 C 235.1875 414.871094 231.683594 416.992188 227.152344 417.296875 C 220.066406 417.769531 212.304688 416.140625 204.699219 412.582031 C 197.230469 409.089844 190.429688 403.992188 185.027344 397.84375 C 180.464844 392.652344 177.152344 387.019531 175.179688 381.101562 C 173.035156 374.660156 172.589844 368.15625 173.855469 361.777344 C 174.851562 356.742188 176.480469 352.863281 178.714844 350.179688 C 169.980469 345.570312 158.589844 340.113281 143.222656 336.195312 C 141.109375 335.65625 139.152344 334.898438 137.34375 333.957031 C 137.296875 334.792969 137.183594 335.683594 136.984375 336.621094 C 136.167969 340.53125 133.589844 346.753906 125.945312 354.203125 C 119.183594 360.789062 116.1875 367.300781 117.042969 373.554688 C 117.171875 374.488281 117.386719 375.425781 117.6875 376.363281 C 125.757812 377.121094 135.765625 378.074219 145.855469 380.398438 C 157.808594 383.148438 167.476562 387.238281 175.414062 392.90625 C 187.527344 401.550781 194 412.640625 197.296875 420.417969 C 201.109375 429.417969 202.625 438.742188 201.253906 444.753906 C 200.316406 448.863281 198.34375 450.03125 196.851562 450.289062 C 196.59375 450.335938 196.335938 450.355469 196.078125 450.355469 C 192.398438 450.359375 188.964844 445.820312 183.933594 439.171875 C 175.992188 428.679688 163.996094 412.828125 141.007812 400.253906 C 133.027344 395.886719 126.835938 391.410156 122.613281 386.949219 C 119.765625 383.9375 117.746094 380.863281 116.582031 377.773438 C 108.570312 377.015625 102.261719 376.378906 99.179688 374.625 C 97.269531 373.535156 95.652344 372.175781 94.3125 370.527344 C 94.136719 374.195312 94.558594 378.167969 95.335938 382.675781 C 99.316406 405.84375 111.652344 416.503906 136.90625 433.753906 C 148.035156 441.355469 162.714844 452.828125 175.210938 463.699219 C 185.726562 472.84375 199.539062 485.726562 205.621094 495.160156 C 212.125 505.246094 216.8125 516.859375 219.597656 524.828125 C 222.617188 533.457031 224.121094 539.796875 224.136719 539.859375 C 224.230469 540.265625 223.980469 540.671875 223.574219 540.765625 C 223.515625 540.78125 223.457031 540.785156 223.398438 540.785156 Z M 275.878906 470.691406 C 267.179688 490.53125 273.144531 504.550781 282.328125 511.34375 C 285.367188 513.597656 288.785156 515.042969 291.949219 515.414062 C 294.96875 515.773438 297.449219 515.121094 298.929688 513.578125 C 302.472656 509.890625 299.886719 501.835938 292.007812 492.035156 C 285.875 484.40625 280.550781 477.378906 275.878906 470.691406 Z M 118.269531 377.933594 C 119.394531 380.605469 121.214844 383.273438 123.710938 385.910156 C 127.824219 390.257812 133.890625 394.640625 141.734375 398.929688 C 165.003906 411.660156 177.121094 427.667969 185.136719 438.261719 C 190.183594 444.929688 193.519531 449.332031 196.59375 448.804688 C 198.574219 448.460938 199.441406 445.910156 199.78125 444.417969 C 200.804688 439.9375 200.324219 431.433594 195.90625 421.007812 C 192.683594 413.40625 186.363281 402.574219 174.539062 394.136719 C 157.261719 381.804688 134.886719 379.503906 118.269531 377.933594 Z M 180.082031 350.90625 C 177.90625 353.394531 176.316406 357.128906 175.335938 362.070312 C 172.992188 373.886719 176.835938 386.234375 186.160156 396.847656 C 196.917969 409.09375 213.347656 416.707031 227.050781 415.789062 C 231.066406 415.523438 234.167969 413.640625 236.277344 410.199219 C 238.597656 406.402344 239.59375 401.085938 239.660156 395.082031 C 233.527344 381.582031 226.800781 371.167969 216.625 362.414062 C 210.347656 357.011719 204.648438 352.992188 199.683594 350.460938 C 197.875 349.539062 196.160156 348.8125 194.542969 348.277344 C 195.277344 351.796875 195.058594 354.121094 193.886719 355.324219 C 192.632812 356.609375 190.488281 356.464844 187.511719 354.898438 C 186.222656 354.21875 184.878906 353.492188 183.457031 352.722656 C 182.378906 352.140625 181.253906 351.53125 180.082031 350.90625 Z M 438.691406 327.902344 C 422.207031 330.535156 400.03125 334.265625 383.578125 347.683594 C 372.320312 356.863281 366.707031 368.078125 363.980469 375.871094 C 360.242188 386.558594 360.308594 395.078125 361.617188 399.484375 C 362.050781 400.949219 363.082031 403.441406 365.078125 403.652344 C 368.1875 403.984375 371.226562 399.375 375.835938 392.398438 C 383.15625 381.3125 394.21875 364.558594 416.625 350.359375 C 424.175781 345.574219 429.949219 340.816406 433.773438 336.210938 C 436.09375 333.417969 437.738281 330.640625 438.691406 327.902344 Z M 194.136719 346.578125 C 200.605469 348.484375 208.453125 353.394531 217.609375 361.269531 C 225.40625 367.980469 231.316406 375.53125 236.773438 385.753906 C 237.726562 387.539062 238.660156 389.398438 239.585938 391.34375 C 238.984375 378.628906 234.859375 363.746094 230.511719 353.632812 C 222.859375 335.828125 215.699219 325.867188 207.410156 314.335938 C 206.132812 312.5625 204.8125 310.722656 203.480469 308.839844 C 192.839844 293.816406 188.554688 285.816406 185.425781 279.976562 L 185.316406 279.765625 C 183.261719 275.9375 180.613281 274.019531 178.050781 274.5 C 175.085938 275.054688 172.777344 278.644531 172.167969 283.648438 C 170.242188 299.402344 175.9375 309.355469 181.96875 319.894531 C 182.589844 320.984375 183.230469 322.105469 183.859375 323.226562 C 187.636719 329.960938 190.910156 336.972656 192.847656 342.464844 C 193.375 343.960938 193.804688 345.332031 194.136719 346.578125 Z M 94.507812 368.226562 C 95.898438 370.359375 97.699219 372.042969 99.925781 373.3125 C 102.652344 374.863281 108.546875 375.496094 116.0625 376.207031 C 115.832031 375.390625 115.660156 374.574219 115.550781 373.757812 C 115.074219 370.277344 115.671875 366.722656 117.335938 363.191406 C 118.894531 359.875 121.4375 356.488281 124.890625 353.121094 C 132.261719 345.941406 134.734375 340.015625 135.507812 336.3125 C 135.753906 335.144531 135.855469 334.074219 135.855469 333.121094 C 133.527344 331.71875 131.453125 329.992188 129.59375 328.015625 C 126.367188 329.652344 122.257812 333.675781 117.671875 338.167969 C 116.277344 339.535156 114.796875 340.980469 113.261719 342.441406 C 113.246094 344.453125 113.355469 346.371094 113.453125 348.039062 C 113.675781 351.976562 113.824219 354.582031 112.289062 355.304688 C 111.011719 355.910156 109.183594 354.921875 105.777344 351.777344 C 105.324219 351.359375 104.863281 350.90625 104.402344 350.421875 C 98.121094 356.4375 95.289062 361.9375 94.507812 368.226562 Z M 325.941406 308.59375 C 325.667969 309.335938 325.394531 310.089844 325.121094 310.859375 C 319.25 327.363281 314.714844 355.902344 323 367.675781 C 325.324219 370.976562 328.542969 372.65625 332.566406 372.664062 C 332.589844 372.664062 332.621094 372.664062 332.644531 372.664062 C 345.820312 372.664062 360.703125 364.78125 370.585938 352.558594 C 379.796875 341.164062 383.398438 328.074219 380.71875 315.703125 C 380.53125 314.835938 379.742188 311.804688 377.441406 309.097656 C 376.3125 307.769531 375.003906 306.730469 373.527344 305.984375 C 373.011719 306.304688 372.511719 306.621094 372.019531 306.929688 C 370.648438 307.789062 369.355469 308.597656 368.113281 309.355469 C 365.242188 311.113281 363.113281 311.394531 361.78125 310.195312 C 360.820312 309.328125 360.378906 307.761719 360.460938 305.460938 C 357.597656 306.175781 354.765625 307.226562 351.976562 308.257812 C 347.03125 310.09375 341.953125 311.972656 336.777344 311.976562 C 335.226562 311.976562 333.664062 311.804688 332.09375 311.414062 C 329.6875 310.8125 327.644531 309.882812 325.941406 308.59375 Z M 92.847656 333.359375 C 90.707031 344.996094 90.273438 353.828125 91.515625 360.34375 C 91.921875 362.484375 92.519531 364.394531 93.316406 366.082031 C 93.464844 365.308594 93.652344 364.542969 93.875 363.78125 C 95.34375 358.765625 98.394531 354.101562 103.378906 349.316406 C 99.847656 345.351562 96.128906 339.722656 92.847656 333.359375 Z M 181.191406 349.785156 C 182.222656 350.339844 183.21875 350.878906 184.175781 351.394531 C 185.59375 352.164062 186.933594 352.886719 188.214844 353.5625 C 189.808594 354.398438 191.894531 355.207031 192.804688 354.273438 C 193.25 353.816406 193.960938 352.34375 192.878906 347.789062 C 189.714844 346.980469 186.949219 346.976562 184.609375 347.78125 C 183.359375 348.210938 182.222656 348.882812 181.191406 349.785156 Z M 105.503906 349.390625 C 105.941406 349.847656 106.375 350.273438 106.800781 350.667969 C 110.59375 354.167969 111.5 354.007812 111.644531 353.941406 C 111.679688 353.925781 111.972656 353.75 112.058594 352.421875 C 112.128906 351.332031 112.042969 349.84375 111.945312 348.125 C 111.871094 346.828125 111.789062 345.378906 111.761719 343.851562 C 110.363281 345.148438 108.925781 346.441406 107.464844 347.671875 C 106.78125 348.25 106.125 348.824219 105.503906 349.390625 Z M 93.355469 331.015625 C 96.773438 337.9375 100.742188 344.085938 104.480469 348.285156 C 105.121094 347.699219 105.789062 347.113281 106.492188 346.519531 C 108.308594 344.984375 110.058594 343.390625 111.761719 341.785156 C 111.78125 340.683594 111.84375 339.554688 111.964844 338.421875 C 112.265625 335.617188 112.773438 333.171875 113.519531 330.886719 C 109.441406 329.519531 105.996094 326.828125 103.054688 322.722656 C 102.097656 321.386719 101.195312 319.910156 100.355469 318.285156 C 96.972656 322.925781 94.414062 327.265625 93.355469 331.015625 Z M 114.957031 331.304688 C 114.238281 333.503906 113.757812 335.859375 113.464844 338.582031 C 113.402344 339.152344 113.359375 339.722656 113.328125 340.292969 C 114.4375 339.21875 115.535156 338.148438 116.617188 337.089844 C 121.25 332.550781 125.191406 328.691406 128.554688 326.863281 C 126.285156 324.230469 124.351562 321.214844 122.667969 317.976562 C 120.871094 320.339844 119.378906 322.441406 118.152344 324.472656 C 120.378906 327.84375 121.582031 329.722656 120.792969 330.988281 C 120.175781 331.980469 118.632812 331.917969 117.359375 331.753906 C 116.535156 331.648438 115.734375 331.5 114.957031 331.304688 Z M 131.125 327.40625 C 132.527344 328.84375 134.050781 330.128906 135.710938 331.234375 C 135.480469 329.785156 135.007812 328.769531 134.5625 328.289062 C 133.929688 327.605469 133.214844 327.261719 132.375 327.242188 C 131.980469 327.230469 131.5625 327.289062 131.125 327.40625 Z M 115.464844 329.875 C 116.140625 330.039062 116.835938 330.167969 117.550781 330.257812 C 119.25 330.476562 119.511719 330.191406 119.515625 330.1875 C 119.515625 330.1875 119.640625 329.902344 119.011719 328.703125 C 118.613281 327.949219 118.015625 327.011719 117.308594 325.933594 C 116.589844 327.242188 115.980469 328.539062 115.464844 329.875 Z M 101.367188 316.917969 C 102.273438 318.757812 103.246094 320.402344 104.28125 321.84375 C 107.03125 325.679688 110.238281 328.191406 114.023438 329.457031 C 114.664062 327.777344 115.445312 326.164062 116.382812 324.53125 C 113.839844 320.679688 110.34375 315.234375 108.1875 308.480469 C 105.746094 311.347656 103.425781 314.179688 101.367188 316.917969 Z M 91.070312 281.855469 C 88.28125 290.992188 85.890625 300.023438 85.6875 304.792969 C 85.445312 310.542969 87.871094 319.332031 92.339844 328.90625 C 92.363281 328.957031 92.386719 329.003906 92.410156 329.054688 C 93.785156 325.324219 96.359375 321.15625 99.601562 316.769531 C 96.917969 311.089844 94.84375 303.777344 93.3125 294.636719 C 92.507812 289.847656 91.78125 285.699219 91.070312 281.855469 Z M 418.265625 284.3125 C 418.328125 285.261719 418.496094 286.324219 418.816406 287.472656 C 419.828125 291.121094 422.675781 296.871094 430.492188 303.566406 C 434.15625 306.703125 436.910156 309.921875 438.679688 313.128906 C 440.5625 316.546875 441.390625 320.054688 441.140625 323.558594 C 441.082031 324.382812 440.960938 325.210938 440.78125 326.039062 C 448.238281 324.84375 454.078125 323.835938 456.703125 322.109375 C 458.84375 320.703125 460.53125 318.90625 461.78125 316.6875 C 460.597656 310.460938 457.417969 305.15625 450.765625 299.554688 C 450.335938 300.066406 449.90625 300.546875 449.480469 300.996094 C 446.28125 304.351562 444.523438 305.457031 443.207031 304.9375 C 441.628906 304.3125 441.609375 301.703125 441.582031 297.757812 C 441.566406 296.089844 441.554688 294.164062 441.410156 292.160156 C 439.785156 290.800781 438.214844 289.453125 436.734375 288.179688 C 431.871094 283.992188 427.511719 280.238281 424.1875 278.8125 C 422.457031 280.90625 420.496094 282.761719 418.265625 284.3125 Z M 109.355469 307.117188 C 111.3125 313.757812 114.679688 319.1875 117.242188 323.09375 C 118.539062 321.015625 120.085938 318.867188 121.917969 316.480469 C 119.367188 311.238281 117.417969 305.484375 115.746094 299.828125 C 113.59375 302.257812 111.4375 304.699219 109.355469 307.117188 Z M 92.027344 278.765625 C 92.910156 283.40625 93.796875 288.394531 94.800781 294.386719 C 96.226562 302.878906 98.183594 309.90625 100.640625 315.382812 C 102.785156 312.570312 105.175781 309.675781 107.675781 306.753906 C 106.871094 303.816406 106.335938 300.644531 106.25 297.269531 C 106.054688 289.773438 107.5625 283.257812 109.3125 277.046875 C 106.292969 266.636719 103.734375 258.40625 101.285156 251.753906 C 100.613281 253.320312 99.929688 255.125 99.21875 257.175781 L 98.945312 257.976562 C 97.367188 262.542969 94.617188 270.503906 92.027344 278.765625 Z M 116.925781 298.496094 C 118.570312 304.128906 120.472656 309.886719 122.957031 315.136719 C 124.203125 313.535156 125.570312 311.820312 127.0625 309.945312 C 128.628906 307.984375 130.402344 305.757812 132.304688 303.328125 C 137.578125 296.589844 136.46875 287.441406 133.171875 284.796875 C 130.828125 282.914062 128.394531 285.164062 127.152344 286.671875 C 124.015625 290.488281 120.425781 294.546875 116.925781 298.496094 Z M 451.714844 298.386719 C 456.996094 302.84375 460.339844 307.300781 462.128906 312.210938 C 462.398438 312.957031 462.632812 313.710938 462.835938 314.472656 C 463.519531 312.738281 463.992188 310.792969 464.261719 308.628906 C 465.082031 302.050781 464.082031 293.261719 461.199219 281.785156 C 458.332031 288.347656 454.984375 294.203125 451.714844 298.386719 Z M 326.496094 307.105469 C 328.113281 308.417969 330.09375 309.359375 332.460938 309.949219 C 338.804688 311.53125 344.949219 309.253906 351.453125 306.84375 C 354.441406 305.738281 357.484375 304.609375 360.585938 303.875 C 360.800781 302.046875 361.265625 299.855469 361.988281 297.292969 C 363.570312 291.6875 366.390625 284.480469 369.722656 277.519531 C 370.277344 276.359375 370.847656 275.199219 371.398438 274.074219 C 376.738281 263.167969 381.785156 252.867188 378.851562 237.273438 C 377.921875 232.316406 375.386719 228.882812 372.394531 228.519531 C 369.804688 228.203125 367.285156 230.289062 365.480469 234.242188 L 365.382812 234.457031 C 362.636719 240.488281 358.875 248.746094 349.222656 264.421875 C 348.011719 266.386719 346.8125 268.304688 345.652344 270.160156 C 338.652344 281.347656 332.539062 291.121094 326.496094 307.105469 Z M 361.996094 305.109375 C 361.835938 307.777344 362.417969 308.738281 362.792969 309.074219 C 363.757812 309.945312 365.792969 309.007812 367.328125 308.070312 C 368.558594 307.316406 369.851562 306.507812 371.214844 305.648438 C 371.414062 305.527344 371.613281 305.398438 371.816406 305.273438 C 370.550781 304.855469 369.1875 304.621094 367.722656 304.574219 C 365.808594 304.507812 363.898438 304.722656 361.996094 305.109375 Z M 110.117188 279.832031 C 108.695312 285.21875 107.59375 290.886719 107.757812 297.230469 C 107.832031 300.09375 108.242188 302.8125 108.875 305.363281 C 110.960938 302.953125 113.109375 300.527344 115.246094 298.117188 C 114.601562 295.871094 113.992188 293.652344 113.398438 291.496094 C 112.953125 289.863281 112.53125 288.320312 112.101562 286.804688 C 111.417969 284.382812 110.757812 282.058594 110.117188 279.832031 Z M 443 293.472656 C 443.070312 295 443.078125 296.449219 443.089844 297.75 C 443.101562 299.472656 443.113281 300.957031 443.253906 302.042969 C 443.425781 303.363281 443.726562 303.519531 443.761719 303.53125 C 443.910156 303.589844 444.824219 303.691406 448.386719 299.953125 C 448.789062 299.53125 449.191406 299.082031 449.601562 298.597656 C 448.941406 298.074219 448.253906 297.542969 447.53125 297.007812 C 445.996094 295.871094 444.476562 294.675781 443 293.472656 Z M 442.867188 291.410156 C 444.667969 292.902344 446.515625 294.378906 448.429688 295.796875 C 449.167969 296.339844 449.871094 296.886719 450.550781 297.429688 C 454.011719 292.996094 457.578125 286.605469 460.542969 279.480469 C 459.242188 275.804688 456.414062 271.640625 452.742188 267.226562 C 452.003906 268.902344 451.199219 270.433594 450.332031 271.828125 C 447.660156 276.109375 444.390625 279.023438 440.414062 280.644531 C 441.304688 282.878906 441.964844 285.285156 442.449219 288.066406 C 442.640625 289.1875 442.773438 290.308594 442.867188 291.410156 Z M 425.148438 277.59375 C 428.621094 279.203125 432.804688 282.804688 437.71875 287.035156 C 438.867188 288.023438 440.027344 289.023438 441.207031 290.019531 C 441.140625 289.453125 441.058594 288.886719 440.960938 288.324219 C 440.492188 285.625 439.863281 283.304688 439.003906 281.15625 C 438.238281 281.398438 437.453125 281.601562 436.636719 281.757812 C 435.375 282.003906 433.839844 282.164062 433.15625 281.214844 C 432.289062 280.003906 433.371094 278.046875 435.378906 274.542969 C 434.023438 272.59375 432.398438 270.59375 430.453125 268.351562 C 428.980469 271.691406 427.242188 274.824219 425.148438 277.59375 Z M 421.683594 278.203125 C 421.574219 278.203125 421.46875 278.210938 421.363281 278.21875 C 420.527344 278.292969 419.832031 278.679688 419.246094 279.402344 C 418.832031 279.914062 418.421875 280.957031 418.285156 282.417969 C 419.875 281.207031 421.3125 279.828125 422.617188 278.304688 C 422.292969 278.238281 421.980469 278.203125 421.683594 278.203125 Z M 436.3125 275.949219 C 435.675781 277.066406 435.140625 278.042969 434.792969 278.820312 C 434.238281 280.054688 434.382812 280.332031 434.386719 280.335938 C 434.386719 280.335938 434.667969 280.605469 436.351562 280.277344 C 437.054688 280.140625 437.738281 279.96875 438.40625 279.761719 C 437.804688 278.460938 437.113281 277.207031 436.3125 275.949219 Z M 437.148438 274.488281 C 438.1875 276.054688 439.070312 277.617188 439.816406 279.253906 C 443.511719 277.746094 446.554688 275.03125 449.050781 271.027344 C 449.988281 269.523438 450.855469 267.820312 451.644531 265.925781 C 449.410156 263.328125 446.914062 260.648438 444.292969 257.941406 C 442.578125 264.824219 439.4375 270.480469 437.148438 274.488281 Z M 453.394531 265.664062 C 456.914062 269.835938 459.75 273.828125 461.359375 277.460938 C 461.378906 277.410156 461.398438 277.359375 461.417969 277.308594 C 465.265625 267.46875 467.121094 258.539062 466.511719 252.816406 C 466.003906 248.070312 463.035156 239.214844 459.667969 230.273438 C 459.203125 234.15625 458.746094 238.339844 458.25 243.171875 C 457.304688 252.394531 455.707031 259.824219 453.394531 265.664062 Z M 87.617188 233.535156 C 87.121094 233.535156 86.652344 233.609375 86.226562 233.761719 C 83.90625 234.582031 83.019531 237.519531 83.910156 241.429688 L 84.597656 244.433594 C 87.65625 257.855469 89.59375 266.339844 91.425781 275.667969 C 93.761719 268.359375 96.105469 261.570312 97.515625 257.484375 L 97.792969 256.683594 C 98.742188 253.941406 99.640625 251.640625 100.523438 249.734375 C 99.339844 246.652344 98.171875 243.929688 96.980469 241.5 C 94.316406 236.058594 90.476562 233.535156 87.617188 233.535156 Z M 102.167969 249.804688 C 104.613281 256.257812 107.140625 264.234375 110.09375 274.332031 C 110.1875 274.007812 110.28125 273.683594 110.378906 273.359375 C 110.953125 271.386719 111.5 269.523438 112 267.628906 C 115.074219 255.984375 114.324219 247.066406 110.042969 244.351562 C 108.960938 243.667969 107.976562 243.492188 107.027344 243.824219 C 105.441406 244.382812 103.851562 246.320312 102.167969 249.804688 Z M 431.109375 266.808594 C 433.085938 269.074219 434.769531 271.117188 436.195312 273.109375 C 438.5 269.046875 441.511719 263.414062 443.042969 256.660156 C 440.808594 254.378906 438.5 252.082031 436.195312 249.796875 C 434.890625 255.546875 433.316406 261.414062 431.109375 266.808594 Z M 419.875 235.070312 C 419.191406 235.070312 418.5 235.308594 417.839844 235.910156 C 414.722656 238.761719 414.199219 247.96875 419.894531 254.351562 C 421.949219 256.652344 423.863281 258.761719 425.550781 260.621094 C 427.164062 262.394531 428.636719 264.015625 429.984375 265.53125 C 432.125 260.136719 433.652344 254.265625 434.929688 248.539062 C 431.1875 244.824219 427.34375 241.003906 423.964844 237.398438 C 423.027344 236.398438 421.480469 235.070312 419.875 235.070312 Z M 444.691406 256.191406 C 447.378906 258.945312 449.949219 261.679688 452.265625 264.347656 C 454.371094 258.726562 455.871094 251.585938 456.75 243.019531 C 457.367188 236.976562 457.929688 231.941406 458.515625 227.253906 C 455.402344 219.175781 452.144531 211.40625 450.277344 206.953125 L 449.949219 206.167969 C 449.109375 204.167969 448.308594 202.410156 447.539062 200.890625 C 445.523438 207.683594 443.496094 216.0625 441.152344 226.648438 C 443.296875 232.730469 445.222656 239.140625 445.507812 246.632812 C 445.636719 250.007812 445.308594 253.203125 444.691406 256.191406 Z M 436.585938 248.054688 C 438.871094 250.324219 441.167969 252.605469 443.40625 254.875 C 443.875 252.289062 444.109375 249.550781 444 246.6875 C 443.757812 240.347656 442.292969 234.761719 440.53125 229.476562 C 440.035156 231.742188 439.523438 234.101562 438.996094 236.5625 C 438.664062 238.105469 438.34375 239.671875 438 241.328125 C 437.550781 243.515625 437.085938 245.773438 436.585938 248.054688 Z M 312.261719 183.386719 C 311.96875 183.386719 311.683594 183.390625 311.410156 183.394531 C 295.183594 183.765625 274.449219 195.796875 260.988281 212.65625 C 257.484375 217.046875 255.132812 220.914062 254 224.152344 C 253.039062 226.914062 253.035156 229.0625 253.988281 230.363281 C 255.429688 232.332031 259.207031 232.382812 264.089844 230.5 C 268.699219 228.726562 271.820312 227.066406 273.792969 225.847656 C 272.796875 225.351562 272.515625 224.675781 272.519531 224.066406 C 272.527344 222.242188 275.328125 220.675781 277.609375 220.675781 C 279.097656 220.675781 279.457031 221.417969 279.539062 221.863281 C 279.699219 222.714844 279.027344 223.78125 277.539062 225.035156 C 277.667969 225.039062 277.800781 225.042969 277.941406 225.042969 C 278.007812 225.046875 278.074219 225.046875 278.140625 225.046875 C 281.761719 225.046875 286.101562 224.015625 290.082031 222.207031 C 291.929688 221.367188 293.550781 220.425781 294.847656 219.460938 C 293.308594 219 292.5 218.304688 292.441406 217.390625 C 292.378906 216.414062 293.246094 215.464844 294.816406 214.789062 C 296.210938 214.191406 298.152344 213.828125 299.046875 214.785156 C 299.40625 215.171875 299.707031 215.886719 299.089844 217.089844 C 298.878906 217.496094 298.605469 217.910156 298.273438 218.324219 C 299.871094 218.265625 301.714844 217.925781 303.59375 217.328125 C 306.683594 216.34375 309.347656 214.808594 310.546875 213.316406 C 311.304688 212.371094 310.65625 211.554688 308.738281 209.621094 C 307.527344 208.398438 306.152344 207.015625 305.429688 205.28125 C 303.832031 201.445312 304.703125 196.804688 308.171875 190.679688 C 309.460938 188.402344 311.070312 185.976562 312.917969 183.390625 C 312.695312 183.386719 312.476562 183.386719 312.261719 183.386719 Z M 277.609375 222.1875 C 275.726562 222.1875 274.03125 223.46875 274.027344 224.074219 C 274.027344 224.226562 274.320312 224.570312 275.371094 224.804688 C 277.269531 223.449219 277.898438 222.566406 278.027344 222.226562 C 277.949219 222.207031 277.816406 222.1875 277.609375 222.1875 Z M 448.167969 198.828125 C 449.171875 200.671875 450.21875 202.910156 451.339844 205.585938 L 451.667969 206.371094 C 453.339844 210.355469 456.117188 216.976562 458.914062 224.121094 C 460.144531 214.699219 461.53125 206.105469 463.722656 192.515625 L 464.214844 189.472656 C 464.851562 185.511719 463.777344 182.636719 461.410156 181.96875 C 458.472656 181.136719 453.890625 183.804688 451.175781 190.382812 C 450.144531 192.882812 449.152344 195.675781 448.167969 198.828125 Z M 440.523438 193.238281 C 439.8125 193.238281 439.085938 193.515625 438.324219 194.066406 C 434.226562 197.050781 434.050781 205.996094 437.867188 217.421875 C 438.488281 219.28125 439.152344 221.105469 439.851562 223.035156 C 439.96875 223.351562 440.082031 223.667969 440.199219 223.988281 C 442.5 213.722656 444.507812 205.601562 446.535156 199.003906 C 444.628906 195.632812 442.921875 193.800781 441.296875 193.347656 C 441.042969 193.277344 440.785156 193.238281 440.523438 193.238281 Z M 297.414062 215.707031 C 296.90625 215.707031 296.105469 215.851562 295.261719 216.242188 C 294.246094 216.714844 293.941406 217.1875 293.949219 217.296875 C 293.953125 217.363281 294.21875 217.707031 295.347656 218.035156 C 295.644531 218.121094 295.964844 218.1875 296.304688 218.238281 C 296.953125 217.613281 297.441406 216.992188 297.746094 216.398438 C 297.941406 216.019531 297.9375 215.847656 297.933594 215.808594 C 297.859375 215.746094 297.675781 215.707031 297.414062 215.707031 Z M 261.835938 171.285156 C 263.539062 173.449219 269.753906 176.691406 280.960938 175.917969 C 300.0625 174.597656 315.714844 163.441406 330.214844 140.8125 C 331.90625 138.171875 333.589844 135.710938 335.277344 133.414062 C 335.148438 127.363281 334.164062 122.511719 333.144531 119.765625 C 331.347656 114.925781 330.210938 111.515625 330.710938 108.394531 C 331.019531 106.464844 331.945312 104.714844 333.652344 102.949219 C 331.039062 103.40625 328.4375 102.972656 325.894531 102.550781 C 322.792969 102.03125 319.863281 101.542969 317.238281 102.789062 C 313.40625 104.609375 313.238281 108.4375 313.058594 112.488281 C 312.964844 114.609375 312.867188 116.800781 312.238281 118.777344 C 311.761719 120.28125 310.382812 123.019531 306.535156 124.445312 C 305.175781 124.953125 303.441406 125.308594 301.273438 125.308594 C 296 125.308594 288.121094 123.214844 276.574219 116.109375 C 254.292969 102.398438 244.105469 103.285156 210.359375 106.226562 C 209.027344 106.34375 207.664062 106.460938 206.261719 106.582031 C 203.519531 106.820312 200.878906 106.929688 198.332031 106.929688 C 180.476562 106.929688 167.496094 101.628906 160.097656 98.609375 C 158.132812 97.808594 156.582031 97.175781 155.421875 96.832031 C 153.996094 96.410156 153.746094 96.621094 153.742188 96.621094 C 153.738281 96.625 153.492188 96.910156 153.996094 98.546875 C 155.613281 103.777344 159.820312 109.367188 165.542969 113.878906 C 169.132812 116.707031 174.585938 120.109375 181.671875 121.960938 C 182.066406 121.34375 182.742188 120.773438 183.867188 120.425781 C 187.25 119.390625 193.398438 121.089844 194.648438 122.613281 C 195.132812 123.207031 194.9375 123.726562 194.832031 123.921875 C 194.445312 124.632812 193.285156 125.203125 187.488281 124.5625 C 185.808594 124.378906 184.199219 124.101562 182.660156 123.753906 C 182.496094 126.726562 185.800781 130.730469 191.550781 134.503906 C 196.25 137.585938 201.855469 140.046875 207.15625 141.402344 C 207.46875 141.078125 207.859375 140.804688 208.324219 140.59375 C 210.355469 139.679688 212.710938 139.914062 213.929688 140.132812 C 215.707031 140.453125 217.285156 141.117188 217.945312 141.816406 C 218.542969 142.453125 218.34375 143.019531 218.234375 143.234375 C 217.851562 143.964844 216.671875 144.585938 210.835938 143.699219 C 209.855469 143.550781 208.859375 143.355469 207.84375 143.121094 C 207.742188 143.457031 207.734375 143.847656 207.8125 144.296875 C 208.558594 148.539062 217.550781 156.6875 232.800781 157.828125 C 233.414062 157.871094 233.988281 157.90625 234.527344 157.925781 C 234.632812 156.726562 235.464844 155.828125 236.878906 155.425781 C 239.796875 154.589844 242.480469 154.800781 243.40625 155.933594 C 243.773438 156.382812 243.832031 156.953125 243.570312 157.460938 C 242.914062 158.71875 240.308594 159.421875 236.378906 159.460938 C 238.085938 163.019531 245.832031 168.875 254.433594 169.6875 C 256.558594 169.890625 258.367188 169.9375 259.871094 169.890625 C 259.984375 169.140625 260.550781 167.996094 262.894531 167.761719 C 266.242188 167.425781 266.742188 168.226562 266.90625 168.488281 C 267.117188 168.832031 267.113281 169.25 266.894531 169.609375 C 266.351562 170.488281 264.480469 170.929688 263.007812 171.144531 C 262.671875 171.195312 262.28125 171.246094 261.835938 171.285156 Z M 336.796875 133.902344 C 336.824219 136.011719 336.75 138.25 336.542969 140.585938 C 335.875 148.109375 333.546875 159.054688 326.246094 168.460938 C 325.457031 169.476562 324.683594 170.46875 323.921875 171.445312 C 334.996094 169.050781 344.667969 166.507812 352.972656 159.523438 C 353.09375 159.421875 353.242188 159.359375 353.402344 159.347656 C 353.558594 159.335938 369.1875 158.109375 375.609375 152.039062 C 376.117188 151.554688 376.53125 151.128906 376.863281 150.753906 C 375.542969 150.839844 374.234375 150.722656 373.660156 150.066406 C 373.496094 149.878906 373.019531 149.199219 373.730469 148.273438 C 374.609375 147.121094 376.671875 146.347656 378.140625 146.621094 C 378.945312 146.769531 379.496094 147.214844 379.695312 147.878906 C 379.773438 148.152344 379.789062 148.449219 379.738281 148.773438 C 381.484375 148.363281 384.453125 147.46875 387.660156 145.636719 C 392.332031 142.96875 394.582031 140.230469 395.644531 138.398438 C 396.289062 137.292969 396.621094 136.3125 396.746094 135.503906 C 394.25 136.453125 392.390625 136.695312 391.410156 136.136719 C 390.933594 135.867188 390.667969 135.410156 390.679688 134.886719 C 390.699219 133.886719 391.730469 132.789062 393.507812 131.878906 C 395.34375 130.9375 397.054688 131.296875 397.867188 132.792969 C 397.953125 132.953125 398.027344 133.117188 398.085938 133.292969 C 399.648438 132.570312 401.554688 131.546875 403.859375 130.109375 C 409.640625 126.503906 413.867188 122.515625 416.421875 118.257812 C 418.382812 114.988281 419.269531 111.613281 418.921875 108.75 C 418.878906 108.414062 418.804688 108.117188 418.691406 107.851562 C 415.59375 109.621094 412.171875 111.15625 410.203125 111.15625 C 409.75 111.15625 409.378906 111.074219 409.101562 110.898438 C 408.652344 110.613281 408.316406 109.996094 408.707031 109.121094 C 409.839844 106.570312 413.925781 104.507812 416.957031 104.960938 C 417.796875 105.089844 418.511719 105.402344 419.070312 105.878906 C 422.425781 103.847656 428.828125 99.460938 435.03125 92.363281 C 438.339844 88.574219 440.84375 85.292969 442.277344 82.863281 C 443.988281 79.964844 443.589844 79.3125 443.585938 79.304688 C 443.574219 79.296875 442.289062 78.589844 436.039062 83.070312 C 423.972656 91.710938 412.183594 94.742188 399.699219 97.953125 C 393.394531 99.574219 386.871094 101.253906 380.160156 103.726562 C 362.578125 110.207031 350.226562 115.8125 336.796875 133.902344 Z M 264.339844 169.191406 C 263.988281 169.191406 263.558594 169.210938 263.042969 169.265625 C 262.652344 169.304688 261.878906 169.425781 261.53125 169.792969 C 263.042969 169.660156 264.121094 169.429688 264.796875 169.203125 C 264.664062 169.195312 264.511719 169.191406 264.339844 169.191406 Z M 240.214844 156.417969 C 239.453125 156.417969 238.480469 156.535156 237.292969 156.875 C 236.390625 157.132812 236.105469 157.550781 236.042969 157.957031 C 240.265625 157.953125 241.867188 157.171875 242.179688 156.832031 C 241.972656 156.664062 241.320312 156.417969 240.214844 156.417969 Z M 374.964844 149.144531 C 375.378906 149.273438 376.390625 149.351562 378.046875 149.101562 C 378.3125 148.558594 378.253906 148.324219 378.246094 148.308594 C 378.210938 148.179688 377.96875 148.121094 377.867188 148.105469 C 377.054688 147.953125 375.578125 148.402344 374.964844 149.144531 Z M 209.183594 141.871094 C 209.816406 142 210.445312 142.113281 211.0625 142.207031 C 214.277344 142.695312 215.785156 142.660156 216.464844 142.566406 C 215.980469 142.277344 215.101562 141.90625 213.894531 141.664062 C 212.136719 141.308594 210.4375 141.386719 209.183594 141.871094 Z M 392.203125 134.851562 C 392.5625 135.007812 393.917969 135.019531 396.691406 133.898438 C 396.652344 133.753906 396.597656 133.625 396.539062 133.511719 C 395.988281 132.496094 394.835938 132.894531 394.199219 133.21875 C 392.75 133.960938 392.292969 134.621094 392.203125 134.851562 Z M 183.328125 122.355469 C 184.710938 122.660156 186.15625 122.898438 187.652344 123.0625 C 190.882812 123.421875 192.390625 123.347656 193.066406 123.242188 C 191.683594 122.40625 187.433594 121.097656 184.570312 121.800781 C 184.003906 121.9375 183.605469 122.132812 183.328125 122.355469 Z M 410.121094 109.65625 C 410.492188 109.667969 411.308594 109.5625 412.761719 109.03125 C 414.1875 108.507812 415.851562 107.71875 417.625 106.722656 C 417.367188 106.59375 417.066406 106.503906 416.734375 106.453125 C 414.402344 106.105469 411.042969 107.742188 410.121094 109.65625 Z M 354.394531 85.488281 C 357.6875 86.078125 361.058594 85.808594 364.132812 84.65625 C 367.910156 83.246094 370.855469 80.683594 372.519531 77.390625 C 365.859375 76.46875 359.683594 78.898438 355.457031 84.148438 C 355.101562 84.59375 354.75 85.035156 354.394531 85.488281 Z M 339.21875 63.953125 C 338.324219 69.441406 339.492188 79.019531 349.164062 83.769531 C 350.273438 84.3125 351.417969 84.746094 352.582031 85.074219 C 352.6875 84.910156 352.792969 84.75 352.894531 84.585938 C 354.167969 76.226562 347.765625 66.652344 339.21875 63.953125 Z M 359.089844 66.003906 C 359.019531 68.773438 358.613281 71.464844 358.097656 73.820312 C 359.007812 71.234375 359.6875 68.691406 360.1875 66.269531 C 359.816406 66.191406 359.449219 66.105469 359.089844 66.003906 Z M 361.996094 65.039062 C 363.488281 65.222656 365.042969 65.226562 366.648438 65.042969 C 374.976562 64.085938 380.167969 58.980469 382.207031 55.773438 C 378.480469 55.089844 374.957031 55.105469 372.023438 55.71875 C 371.578125 56.730469 371.007812 57.628906 370.3125 58.410156 C 367.546875 61.523438 363.855469 61.566406 363.667969 61.566406 C 363.425781 61.566406 363.195312 61.449219 363.054688 61.25 C 362.914062 61.050781 362.875 60.796875 362.953125 60.566406 C 363.984375 57.554688 366.910156 55.421875 370.921875 54.40625 C 371.722656 52.171875 371.921875 49.335938 371.507812 45.9375 C 371.019531 41.886719 371.652344 38.976562 372.234375 37.300781 C 364.949219 40.175781 363.296875 46.117188 363.011719 55.183594 C 362.902344 58.574219 362.5625 61.859375 361.996094 65.039062 Z M 347.574219 48.078125 C 347.113281 51.96875 348.707031 56.488281 351.769531 59.828125 C 353.417969 61.625 355.378906 62.988281 357.5625 63.886719 C 357.46875 61.753906 357.125 59.621094 356.421875 57.621094 C 355.25 54.304688 353.277344 51.644531 350.558594 49.71875 C 349.359375 48.871094 348.269531 48.355469 347.574219 48.078125 Z M 370.042969 56.253906 C 367.71875 57.039062 365.929688 58.273438 364.941406 59.878906 C 366.085938 59.617188 367.800781 58.972656 369.199219 57.386719 C 369.507812 57.039062 369.789062 56.660156 370.042969 56.253906 Z M 370.042969 56.253906" style="stroke:none;fill-rule:nonzero;fill:#eee5bf;fill-opacity:1;"/></g><path d="M 904.816406 260.453125 C 818.789062 197.894531 804.832031 192.449219 704.933594 192.03125 C 702.980469 192.03125 703.0625 194.996094 705.015625 194.890625 C 808.699219 189.289062 841.890625 218.070312 903.128906 262.765625 C 904.664062 263.878906 906.347656 261.566406 904.816406 260.453125 Z M 904.816406 260.453125" style="stroke:none;fill-rule:nonzero;fill:#373737;fill-opacity:1;"/><path d="M 805.136719 271.34375 C 763.316406 257.050781 723.742188 241.328125 685.664062 220.8125 C 683.980469 219.898438 682.628906 222.464844 684.328125 223.339844 C 756.671875 260.589844 823.078125 283.636719 902.082031 300.292969 C 902.902344 300.460938 903.648438 299.921875 903.789062 299.152344 C 904.554688 294.972656 885.351562 298.574219 805.136719 271.34375 Z M 805.136719 271.34375" style="stroke:none;fill-rule:nonzero;fill:#373737;fill-opacity:1;"/><path d="M 898.742188 304.699219 C 819.59375 300.828125 744.082031 273.949219 684.148438 228.863281 C 682.644531 227.714844 680.902344 230.007812 682.425781 231.148438 C 746.117188 278.84375 827.3125 305.941406 898.640625 307.558594 C 900.511719 307.59375 900.613281 304.789062 898.742188 304.699219 Z M 898.742188 304.699219" style="stroke:none;fill-rule:nonzero;fill:#373737;fill-opacity:1;"/><path d="M 866.722656 326.046875 C 866.765625 326.046875 852.558594 326.070312 842.875 325.605469 C 766.773438 321.878906 746.179688 300.277344 694.4375 259.804688 C 692.960938 258.652344 691.199219 260.84375 692.636719 262.03125 C 741.820312 302.742188 773.855469 330.410156 866.738281 328.90625 C 868.613281 328.878906 868.601562 326.054688 866.722656 326.046875 Z M 866.722656 326.046875" style="stroke:none;fill-rule:nonzero;fill:#373737;fill-opacity:1;"/><path d="M 924.5625 256.589844 C 923.273438 249.652344 891.625 228.535156 855.421875 210.796875 C 836.355469 201.453125 816.027344 193.042969 798.207031 188.140625 C 788.113281 185.355469 777.417969 182.898438 766.886719 180.824219 C 748.207031 177.140625 730.046875 174.652344 716.699219 173.644531 C 707.171875 172.925781 700.09375 172.964844 697.019531 173.863281 C 690.789062 175.933594 691.472656 179.144531 673.789062 262.03125 C 670.652344 277.953125 674.421875 279.625 692.910156 295.433594 C 697.78125 299.570312 702.433594 303.421875 706.921875 307.011719 C 738.328125 332.121094 761.558594 344.15625 794.007812 348.832031 C 811.671875 351.378906 832.070312 351.746094 858.003906 350.851562 C 874.425781 350.242188 878.976562 350.621094 886.089844 336.945312 C 923.648438 263.921875 925.09375 261.929688 924.5625 256.589844 Z M 697.875 177.953125 C 697.871094 177.957031 697.867188 177.957031 697.863281 177.960938 C 697.847656 177.964844 697.863281 177.957031 697.886719 177.945312 C 697.886719 177.945312 697.890625 177.941406 697.894531 177.941406 C 697.929688 177.90625 697.921875 177.921875 697.902344 177.9375 C 697.9375 177.921875 697.992188 177.90625 698.011719 177.898438 C 699.757812 177.3125 703.847656 177.121094 709.707031 177.367188 C 709.371094 180.359375 708.539062 185.382812 705.679688 189.671875 C 701.304688 196.242188 695.773438 196.507812 691.980469 196.621094 C 695.648438 179.707031 696.171875 179.414062 697.875 177.953125 Z M 677.195312 269.261719 C 677.332031 265.097656 678.441406 259.039062 680.527344 249.316406 C 683.777344 250.746094 688.710938 252.707031 691.054688 258.972656 C 693.894531 266.558594 690.246094 276.078125 688.351562 280.0625 C 683.273438 275.726562 679.183594 271.902344 677.195312 269.261719 Z M 805.632812 345.558594 C 762.496094 341.808594 732.554688 326.117188 683.859375 281.871094 C 681.203125 279.503906 679.339844 277.878906 678.269531 275.707031 C 683.003906 280.601562 691.820312 288.1875 707.546875 299.800781 C 712.613281 303.542969 718.40625 307.621094 722.230469 310.207031 C 730.152344 315.605469 730.464844 315.777344 731.117188 314.882812 C 731.921875 313.769531 707.964844 296.402344 691.34375 282.582031 C 696.078125 275.589844 702.160156 253.570312 681.347656 245.511719 C 683.65625 234.925781 686.925781 220.503906 691.148438 200.507812 C 691.15625 200.507812 691.164062 200.507812 691.175781 200.507812 C 703.875 200.507812 711.859375 192.265625 713.40625 177.570312 C 739.824219 179.269531 793.285156 188.203125 836.125 206.773438 C 865.542969 219.523438 892.511719 235.378906 907.582031 246.023438 C 896.125 263.492188 905.511719 274.59375 910.78125 278.429688 C 906.21875 287.355469 899.554688 300.277344 889.921875 319.214844 C 873.207031 313.738281 861.515625 324.722656 858.679688 341.925781 C 849.289062 341.992188 839.035156 341.808594 834.554688 341.667969 C 792.667969 339.625 771.558594 336.628906 737.6875 317.863281 C 736.554688 317.234375 735.636719 318.84375 736.675781 319.503906 C 759.128906 333.777344 777.90625 341.257812 806.558594 344.054688 C 818.75 345.304688 856.105469 346.183594 873.433594 344.632812 C 873.242188 344.707031 873.050781 344.78125 872.847656 344.847656 C 866.121094 347.027344 824.148438 347.152344 805.632812 345.558594 Z M 881.980469 334.863281 C 880.878906 336.996094 879.855469 338.910156 878.660156 340.507812 C 877.890625 340.746094 876.988281 341.011719 875.914062 341.179688 C 873.332031 341.585938 868.269531 341.792969 862.480469 341.882812 C 863.300781 338.089844 866.136719 327.898438 873.578125 323.5 C 877.632812 321.101562 882.554688 320.789062 888.226562 322.546875 C 886.261719 326.410156 884.183594 330.507812 881.980469 334.863281 Z M 912.582031 274.902344 C 910.179688 273.011719 907.019531 270.253906 906.042969 264.8125 C 904.921875 258.578125 907.980469 252.238281 910.582031 248.191406 C 916.398438 252.492188 919.828125 255.691406 920.085938 257.101562 C 920.433594 258.960938 919.347656 261.601562 912.582031 274.902344 Z M 912.582031 274.902344" style="stroke:none;fill-rule:nonzero;fill:#373737;fill-opacity:1;"/><path d="M 697.886719 177.945312 C 697.882812 177.949219 697.878906 177.949219 697.875 177.953125 C 697.886719 177.949219 697.894531 177.945312 697.902344 177.9375 C 697.894531 177.941406 697.890625 177.945312 697.886719 177.945312 Z M 697.886719 177.945312" style="stroke:none;fill-rule:nonzero;fill:#373737;fill-opacity:1;"/><g clip-path="url(#e50dc9b888)" clip-rule="nonzero"><path d="M 911.410156 400.914062 C 907.402344 399.363281 904.394531 397.175781 902.121094 394.519531 C 888.902344 379.070312 900.613281 347.839844 884.65625 334.777344 C 882.070312 332.664062 885.273438 328.757812 887.859375 330.875 C 910.085938 349.066406 887.445312 397.4375 920.074219 397.445312 C 926.136719 397.445312 932.710938 394.839844 938.78125 390.175781 C 946.128906 384.535156 952.734375 375.890625 956.796875 365.21875 C 961.03125 354.113281 962.511719 340.808594 959.207031 326.417969 C 957.90625 320.757812 955.867188 314.925781 952.960938 308.996094 C 949.679688 302.296875 945.292969 295.46875 939.628906 288.609375 C 933.964844 281.75 927.019531 274.863281 918.613281 268.039062 C 916.019531 265.929688 919.207031 262.015625 921.804688 264.121094 C 924.203125 266.070312 926.488281 268.023438 928.664062 269.984375 C 936.695312 277.226562 943.234375 284.539062 948.464844 291.820312 C 952.125 296.917969 955.144531 302 957.585938 307.023438 C 962.761719 317.675781 965.332031 328.070312 965.90625 337.851562 C 966.796875 352.964844 962.917969 366.597656 956.503906 377.40625 C 948.78125 390.425781 937.378906 399.347656 926.203125 401.808594 C 921.101562 402.929688 916.046875 402.707031 911.410156 400.914062 Z M 911.410156 400.914062" style="stroke:none;fill-rule:nonzero;fill:#373737;fill-opacity:1;"/></g><g clip-path="url(#a3b8738860)" clip-rule="nonzero"><path d="M 634.257812 339.101562 C 622.710938 339.101562 613.835938 334.320312 607.699219 326.417969 C 601.226562 318.082031 597.804688 306.273438 597.503906 292.941406 C 597.226562 280.53125 599.65625 266.796875 604.851562 253.3125 C 615.015625 226.949219 635.757812 201.523438 667.554688 188.753906 C 674.894531 185.808594 682.820312 183.535156 691.339844 182.082031 C 694.632812 181.515625 695.492188 186.492188 692.191406 187.054688 C 647.914062 194.617188 619.054688 225.925781 607.839844 259.195312 C 604.417969 269.339844 602.636719 279.667969 602.5625 289.558594 C 602.203125 335.773438 640.328125 341.296875 648.089844 327.324219 C 651.433594 321.300781 648.824219 313.363281 648.167969 305.515625 C 646.667969 287.546875 657.109375 269.695312 673.5625 262.105469 C 676.597656 260.710938 678.722656 265.285156 675.683594 266.6875 C 661.121094 273.402344 651.878906 289.199219 653.207031 305.097656 C 653.871094 313.035156 656.832031 321.984375 652.511719 329.773438 C 648.816406 336.417969 641.199219 339.101562 634.257812 339.101562 Z M 634.257812 339.101562" style="stroke:none;fill-rule:nonzero;fill:#373737;fill-opacity:1;"/></g></g></svg>